{"glyphs":{"\u0000":{"ha":0,"x_min":0,"x_max":0,"o":""},"\r":{"ha":190,"x_min":0,"x_max":0,"o":""}," ":{"ha":190,"x_min":0,"x_max":0,"o":""},"e":{"ha":565,"x_min":0,"x_max":0,"o":"m 276 108 b 0 340 124 108 0 211 b 276 572 0 468 124 572 b 532 400 418 572 532 482 b 321 249 532 294 354 318 b 454 268 376 228 435 233 b 524 236 472 299 551 285 b 276 108 479 160 385 108 m 329 475 b 206 408 329 526 206 522 b 265 282 206 353 231 310 b 329 475 272 347 329 431 "},"f":{"ha":383,"x_min":0,"x_max":0,"o":"m 58 456 b 0 514 26 456 0 482 b 58 572 0 546 26 572 l 74 572 b 372 822 100 738 232 822 b 633 688 478 822 607 768 b 403 656 669 582 415 551 b 342 751 394 731 376 751 b 260 572 293 751 268 653 l 300 572 b 358 514 333 572 358 546 b 300 456 358 482 333 456 l 256 456 l 256 397 b 299 190 256 303 299 267 b 163 108 299 129 251 108 b 28 190 74 108 28 129 b 69 397 28 267 69 303 l 69 456 l 58 456 "},"g":{"ha":676,"x_min":0,"x_max":0,"o":"m 0 378 b 315 572 0 486 142 572 b 446 556 363 572 406 567 b 513 696 440 608 457 667 b 618 583 607 747 706 631 b 549 510 553 547 546 529 b 631 378 600 475 631 429 b 315 183 631 271 490 183 b 214 194 279 183 246 188 b 181 163 192 185 176 174 b 660 71 203 104 617 288 b 303 -142 685 -57 454 -142 b -8 -17 143 -142 17 -104 b 235 8 -37 88 214 99 b 301 -72 246 -42 256 -82 b 411 82 382 -54 458 63 b 199 78 369 99 331 78 b 104 235 32 78 17 169 b 0 378 40 269 0 321 m 315 503 b 236 378 272 503 236 447 b 315 254 236 310 272 254 b 394 378 360 254 394 310 b 315 503 394 447 360 503 "},"h":{"ha":700,"x_min":0,"x_max":0,"o":"m 531 108 b 394 190 442 108 394 129 b 438 390 394 265 435 301 b 329 503 436 449 394 503 b 231 361 272 503 225 433 l 236 333 b 271 190 249 281 271 247 b 136 108 271 129 224 108 b 0 190 47 108 0 129 b 42 397 0 267 42 303 l 42 532 b 0 739 42 626 0 663 b 136 822 0 800 47 822 b 271 739 224 822 271 800 b 229 535 271 663 229 628 b 379 572 269 561 322 572 b 624 397 501 572 618 519 b 665 190 624 303 665 267 b 531 108 665 129 619 108 "},"i":{"ha":318,"x_min":0,"x_max":0,"o":"m 4 449 b 286 511 4 531 286 644 b 243 350 286 456 243 439 b 286 190 243 257 286 250 b 150 108 286 129 239 108 b 14 190 61 108 14 129 b 57 321 14 244 57 239 b 4 449 57 381 4 396 m 157 601 b 4 629 92 574 24 586 b 89 758 -14 672 24 731 b 242 732 154 788 222 775 b 157 601 260 689 222 631 "},"j":{"ha":325,"x_min":0,"x_max":0,"o":"m -293 -12 b -37 3 -293 119 -37 131 b -11 -72 -37 -42 -37 -72 b 53 321 65 -72 75 190 b 0 449 43 379 0 396 b 299 511 0 531 299 644 b 257 350 299 456 257 439 l 257 103 b -25 -142 257 -57 119 -142 b -293 -12 -154 -142 -293 -96 m 181 601 b 28 629 115 574 47 586 b 113 758 10 672 47 731 b 264 732 178 788 246 775 b 181 601 283 689 246 631 "},"k":{"ha":660,"x_min":0,"x_max":0,"o":"m 0 190 b 42 397 0 267 42 303 l 42 532 b 0 739 42 626 0 663 b 136 822 0 800 47 822 b 271 739 224 822 271 800 b 229 532 271 663 229 626 l 229 397 b 231 372 229 389 229 381 l 256 393 b 351 526 331 454 313 486 b 493 572 389 565 440 572 b 574 482 560 572 621 531 b 424 419 528 438 482 440 l 439 397 b 625 242 490 319 581 313 b 479 108 664 179 568 108 b 317 183 390 108 358 125 b 265 311 288 225 286 264 l 247 296 b 271 190 258 263 271 232 b 136 108 271 129 224 108 b 0 190 47 108 0 129 "},"l":{"ha":301,"x_min":0,"x_max":0,"o":"m 0 190 b 42 397 0 267 42 303 l 42 532 b 0 739 42 626 0 663 b 136 822 0 800 47 822 b 271 739 224 822 271 800 b 229 532 271 663 229 626 l 229 397 b 271 190 229 303 271 267 b 136 108 271 129 224 108 b 0 190 47 108 0 129 "},"m":{"ha":965,"x_min":0,"x_max":0,"o":"m 10 190 b 53 321 10 244 53 239 b 0 449 53 381 0 396 b 275 543 0 524 231 624 b 382 572 303 561 338 572 b 547 483 465 572 521 539 b 707 572 578 539 629 572 b 889 397 828 572 889 503 b 931 190 889 303 931 267 b 796 108 931 129 883 108 b 660 190 707 108 660 129 b 701 390 660 265 700 301 b 660 503 701 449 697 503 b 596 256 599 503 572 369 b 606 190 601 236 606 215 b 471 108 606 129 558 108 b 335 190 382 108 335 129 b 376 390 335 265 375 301 b 335 503 376 449 372 503 b 268 243 272 503 228 344 b 275 228 271 239 272 233 b 282 190 279 217 282 206 b 146 108 282 129 235 108 b 10 190 57 108 10 129 "},"n":{"ha":676,"x_min":0,"x_max":0,"o":"m 590 390 b 632 190 592 301 632 265 b 497 108 632 129 585 108 b 361 190 408 108 361 129 b 403 390 361 265 403 301 b 340 503 403 449 378 503 b 239 358 293 503 239 433 l 239 350 b 282 190 239 257 282 250 b 146 108 282 129 235 108 b 10 190 57 108 10 129 b 53 321 10 244 53 239 b 0 449 53 381 0 396 b 275 542 0 524 232 624 b 389 572 307 561 346 572 b 590 397 511 572 590 503 l 590 390 "},"o":{"ha":583,"x_min":0,"x_max":0,"o":"m 276 108 b 0 340 124 108 0 211 b 276 572 0 468 124 572 b 553 340 429 572 553 468 b 276 108 553 211 429 108 m 276 503 b 221 340 246 503 221 429 b 276 178 221 250 246 178 b 333 340 308 178 333 250 b 276 503 333 429 308 503 "},"p":{"ha":689,"x_min":0,"x_max":0,"o":"m 0 -60 b 42 149 0 18 42 54 l 42 283 b 0 490 42 378 0 413 b 136 572 0 551 47 572 b 257 538 196 572 236 563 b 394 572 296 560 343 572 b 653 340 536 572 653 468 b 394 108 653 211 536 108 b 229 161 331 108 274 128 l 229 149 b 271 -60 229 54 271 18 b 136 -142 271 -119 224 -142 b 0 -60 47 -142 0 -119 m 326 492 b 229 340 272 492 229 424 b 326 189 229 257 272 189 b 424 340 381 189 424 257 b 326 492 424 424 381 492 "},"q":{"ha":686,"x_min":0,"x_max":0,"o":"m 258 108 b 0 340 115 108 0 211 b 258 572 0 468 115 572 b 396 538 308 572 356 560 b 517 572 415 563 457 572 b 653 490 606 572 653 551 b 610 283 653 413 610 378 l 610 149 b 653 -60 610 54 653 18 b 517 -142 653 -119 606 -142 b 381 -60 428 -142 381 -119 b 424 149 381 18 424 54 l 424 161 b 258 108 379 128 321 108 m 325 492 b 228 340 272 492 228 424 b 325 189 228 257 272 189 b 424 340 379 189 424 257 b 325 492 424 424 379 492 "},"r":{"ha":583,"x_min":0,"x_max":0,"o":"m 10 190 b 53 321 10 244 53 239 b 0 449 53 381 0 396 b 282 511 0 531 282 644 b 281 500 282 507 281 503 b 471 572 340 510 389 572 b 547 456 528 572 558 513 b 436 344 533 385 485 344 b 275 429 375 344 318 429 b 239 350 247 429 239 378 b 282 190 239 257 282 250 b 146 108 282 129 235 108 b 10 190 57 108 10 129 "},"s":{"ha":535,"x_min":0,"x_max":0,"o":"m 42 340 b 250 572 -67 426 50 572 b 499 476 350 572 481 539 b 335 453 519 413 382 410 b 215 478 267 518 215 511 b 463 340 214 438 386 406 b 253 108 567 250 454 108 b 4 204 153 108 24 142 b 168 226 -15 268 122 271 b 289 203 238 163 289 169 b 42 340 289 242 122 275 "},"t":{"ha":453,"x_min":0,"x_max":0,"o":"m 58 456 b 0 514 26 456 0 482 b 58 572 0 546 26 572 l 78 572 b 244 683 114 572 174 683 b 318 622 286 683 318 667 b 306 572 318 603 313 588 l 347 572 b 406 514 379 572 406 546 b 347 456 406 482 379 456 l 275 456 l 275 290 b 363 244 275 243 288 208 b 417 188 393 258 450 242 b 240 108 381 125 299 108 b 78 253 167 108 78 153 l 78 456 l 58 456 "},"u":{"ha":664,"x_min":0,"x_max":0,"o":"m 54 397 b 0 508 54 461 0 460 b 147 572 0 561 115 572 b 242 492 214 572 242 536 l 242 290 b 293 178 242 231 256 178 b 367 453 369 178 419 363 b 335 508 351 469 335 481 b 482 572 335 561 450 572 b 575 492 547 572 575 536 l 575 290 b 626 197 575 243 626 240 b 504 108 626 146 557 108 b 396 181 454 108 413 135 b 244 108 358 135 313 108 b 54 283 122 108 54 176 l 54 397 "},"v":{"ha":629,"x_min":0,"x_max":0,"o":"m 153 283 b 7 475 103 378 49 397 b 142 572 -25 536 54 572 b 306 490 231 572 276 543 b 364 306 336 436 326 386 l 365 308 b 415 501 415 403 378 432 b 531 572 443 551 478 572 b 589 490 585 572 611 532 b 444 308 557 433 496 403 l 361 154 b 221 154 324 89 249 96 l 153 283 "},"w":{"ha":967,"x_min":0,"x_max":0,"o":"m 153 283 b 7 475 103 378 49 397 b 142 572 -25 536 54 572 b 306 490 231 572 276 543 b 364 306 336 436 326 386 l 365 308 b 400 408 389 353 396 382 b 351 475 383 428 367 447 b 486 572 319 536 397 572 b 650 490 575 572 621 543 b 708 306 679 436 671 386 l 708 308 b 758 501 760 403 721 432 b 875 572 786 551 822 572 b 933 490 928 572 956 532 b 789 308 901 433 839 403 l 706 154 b 564 154 667 89 592 96 l 497 283 b 463 338 486 304 474 322 b 444 308 456 329 450 319 l 361 154 b 221 154 324 89 249 96 l 153 283 "},"x":{"ha":578,"x_min":0,"x_max":0,"o":"m 529 219 b 424 108 578 158 515 108 b 233 190 331 108 276 138 b 201 249 218 208 210 228 b 181 179 197 224 193 201 b 68 108 160 143 124 108 b 8 179 13 108 -15 143 b 149 340 47 239 104 267 b 150 343 149 342 150 342 b 17 467 107 396 61 408 b 126 572 -32 526 35 572 b 317 490 219 572 274 543 b 346 439 331 474 339 456 b 367 501 350 460 354 481 b 479 572 386 538 424 572 b 538 501 535 572 561 538 b 397 340 499 442 442 414 l 397 339 b 529 219 442 285 483 278 "},"y":{"ha":636,"x_min":0,"x_max":0,"o":"m 135 54 b 267 25 178 28 235 -24 b 167 272 303 78 232 182 b 11 475 97 368 63 397 b 135 572 -29 536 46 572 b 319 490 222 572 283 543 b 400 307 353 439 360 381 l 400 308 b 426 501 438 404 397 432 b 535 572 449 551 482 572 b 601 490 588 572 619 532 b 479 308 578 433 519 403 b 382 71 479 308 400 108 b 143 -142 328 -44 264 -142 b -28 -40 67 -142 -18 -114 b 135 54 -36 32 46 108 "},"z":{"ha":578,"x_min":0,"x_max":0,"o":"m 85 379 b 186 572 -53 379 -26 572 l 444 572 b 494 429 540 572 563 499 l 401 340 l 300 242 b 290 178 272 215 250 178 b 461 301 340 178 376 301 b 360 108 599 301 571 108 l 101 108 b 51 251 6 108 -17 182 l 144 340 l 246 438 b 256 503 274 465 296 503 b 85 379 206 503 169 379 "},"A":{"ha":775,"x_min":0,"x_max":0,"o":"m 115 108 b 4 194 53 108 -17 133 b 138 372 24 257 110 293 l 207 560 b 240 749 233 633 213 681 b 368 822 261 801 310 822 b 576 532 501 822 543 626 l 624 397 b 740 190 657 303 713 267 b 615 108 761 129 704 108 b 442 190 526 108 463 129 b 428 308 425 238 429 269 l 196 308 b 261 174 190 260 271 228 b 115 108 254 132 201 108 m 214 378 l 417 378 l 363 532 b 278 557 329 638 297 604 "},"B":{"ha":710,"x_min":0,"x_max":0,"o":"m 0 190 b 42 397 0 267 42 303 l 42 532 b 0 739 42 626 0 663 b 142 822 0 800 54 821 l 408 822 b 618 626 524 822 618 733 b 551 482 618 569 593 518 b 676 304 625 451 676 383 b 467 107 676 196 582 107 l 125 107 l 126 108 b 0 190 49 111 0 133 m 246 250 b 332 178 246 200 285 178 b 472 304 410 178 472 235 b 332 429 472 374 410 429 l 246 429 m 246 500 l 251 500 b 414 626 328 500 414 557 b 293 751 414 686 343 751 b 246 703 271 751 246 736 "},"C":{"ha":764,"x_min":0,"x_max":0,"o":"m 396 108 b 0 465 176 108 0 268 b 396 822 0 663 176 822 b 638 758 508 822 581 775 b 607 490 778 721 729 490 b 483 686 506 490 538 618 b 260 725 425 761 319 772 b 665 303 104 606 433 82 b 718 258 703 340 753 301 b 396 108 644 168 529 108 "},"D":{"ha":764,"x_min":0,"x_max":0,"o":"m 42 532 b 0 739 42 626 0 663 b 142 822 0 800 54 821 l 340 822 b 722 465 558 822 722 661 b 340 108 722 268 558 108 l 142 108 b 0 190 54 108 0 131 b 42 397 0 267 42 303 m 246 244 b 304 178 246 208 268 178 b 471 465 399 178 471 343 b 304 751 471 588 399 751 b 246 685 268 751 246 721 l 246 244 "},"E":{"ha":651,"x_min":0,"x_max":0,"o":"m 42 532 b 0 739 42 626 0 663 b 142 822 0 800 54 821 l 288 822 b 447 832 376 822 419 826 b 560 629 653 875 658 629 b 340 751 468 629 432 751 b 246 671 286 751 246 729 l 246 513 l 293 513 b 461 572 360 513 397 572 b 519 478 515 572 519 533 b 461 382 519 422 515 382 b 293 443 397 382 360 443 l 246 443 l 246 258 b 340 178 246 200 286 178 b 560 300 432 178 468 300 b 447 97 658 300 653 54 b 288 108 419 103 376 108 l 142 108 b 0 190 54 108 0 131 b 42 397 0 267 42 303 "},"F":{"ha":544,"x_min":0,"x_max":0,"o":"m 0 190 b 42 397 0 267 42 303 l 42 532 b 0 739 42 626 0 663 b 142 822 0 800 54 821 l 288 822 b 447 832 376 822 419 826 b 560 629 653 875 658 629 b 340 751 468 629 432 751 b 246 671 286 751 246 729 l 246 513 l 283 513 b 451 572 350 513 388 572 b 508 478 506 572 508 533 b 451 382 508 422 506 382 b 283 443 388 382 350 443 l 246 443 l 246 397 b 289 190 246 303 289 267 b 144 108 289 129 233 108 b 0 190 56 108 0 129 "},"G":{"ha":785,"x_min":0,"x_max":0,"o":"m 396 108 b 0 465 176 108 0 268 b 396 822 0 663 176 822 b 638 758 508 822 581 775 b 607 490 778 721 729 490 b 483 686 507 490 540 615 b 260 725 425 761 319 771 b 531 215 129 625 347 215 b 492 356 519 253 492 310 b 618 444 492 417 529 444 b 751 356 707 444 751 417 b 708 154 751 279 708 249 b 565 136 708 61 619 136 b 396 108 511 136 507 108 "},"H":{"ha":764,"x_min":0,"x_max":0,"o":"m 0 190 b 42 397 0 267 42 303 l 42 532 b 0 739 42 626 0 663 b 144 822 0 800 56 822 b 289 739 233 822 289 800 b 246 532 289 663 246 626 l 246 500 l 486 500 l 486 532 b 443 739 486 626 443 663 b 588 822 443 800 499 822 b 732 739 676 822 732 800 b 690 532 732 663 690 626 l 690 397 b 732 190 690 303 732 267 b 588 108 732 129 676 108 b 443 190 499 108 443 129 b 486 397 443 267 486 303 l 486 429 l 246 429 l 246 397 b 289 190 246 303 289 267 b 144 108 289 129 233 108 b 0 190 56 108 0 129 "},"I":{"ha":322,"x_min":0,"x_max":0,"o":"m 0 190 b 42 397 0 267 42 303 l 42 532 b 0 739 42 626 0 663 b 144 822 0 800 56 822 b 289 739 233 822 289 800 b 246 532 289 663 246 626 l 246 397 b 289 190 246 303 289 267 b 144 108 289 129 233 108 b 0 190 56 108 0 129 "},"J":{"ha":619,"x_min":0,"x_max":0,"o":"m 296 108 b 7 346 86 108 -31 238 b 267 431 44 454 200 475 b 282 178 343 381 214 178 b 371 346 339 178 371 254 l 371 532 b 329 739 371 626 329 663 b 474 822 329 800 385 822 b 618 739 561 822 618 800 b 575 532 618 663 575 626 l 575 307 b 296 108 575 185 458 108 "},"K":{"ha":717,"x_min":0,"x_max":0,"o":"m 0 190 b 42 397 0 267 42 303 l 42 532 b 0 740 42 626 0 663 b 144 822 0 800 56 822 b 289 740 233 822 289 800 b 246 532 289 663 246 626 l 246 504 l 317 557 b 386 751 389 631 346 701 b 569 822 421 793 476 822 b 642 708 669 822 706 765 b 397 540 579 653 478 613 b 642 350 525 557 642 479 b 683 190 642 299 683 250 b 539 108 683 129 628 108 b 394 190 450 108 394 129 b 438 350 394 250 438 311 b 247 386 438 503 247 514 b 289 190 247 300 289 264 b 144 108 289 129 233 108 b 0 190 56 108 0 129 "},"L":{"ha":669,"x_min":0,"x_max":0,"o":"m 0 190 b 42 397 0 267 42 303 l 42 532 b 0 739 42 626 0 663 b 144 822 0 800 56 822 b 289 739 233 822 289 800 b 246 532 289 663 246 626 l 246 279 b 322 178 246 211 268 178 b 564 367 424 178 439 367 b 449 97 690 367 654 54 b 269 108 421 103 360 108 l 142 108 b 0 190 54 108 0 131 "},"M":{"ha":971,"x_min":0,"x_max":0,"o":"m 107 108 b 0 179 40 108 -4 128 b 94 397 6 249 88 303 l 106 557 b 78 750 113 651 72 681 b 150 821 82 797 104 818 l 150 822 l 236 822 b 376 710 321 822 347 781 b 488 411 404 642 488 411 l 604 721 b 753 822 625 771 664 822 b 894 739 840 822 889 800 b 868 532 900 663 860 626 l 878 397 b 936 190 885 303 929 267 b 797 108 940 129 886 108 b 643 190 708 108 649 129 b 671 397 638 267 678 303 l 651 651 l 468 182 b 363 182 440 108 390 108 l 185 638 l 167 397 b 228 179 160 303 233 249 b 107 108 224 128 171 108 "},"N":{"ha":769,"x_min":0,"x_max":0,"o":"m 0 179 b 83 383 0 249 83 290 l 83 557 b 40 750 83 651 40 681 b 129 822 40 801 76 822 l 171 822 b 532 465 288 822 436 600 b 621 350 556 431 624 346 b 622 372 622 357 622 364 l 622 546 b 539 750 622 640 539 681 b 657 822 539 801 583 822 b 775 750 721 822 775 801 b 692 546 775 681 692 640 l 692 372 b 735 179 692 278 735 249 b 646 108 735 128 699 108 l 604 108 b 244 465 488 108 339 329 b 154 581 222 494 154 579 b 153 557 153 572 153 565 l 153 383 b 236 179 153 290 236 249 b 118 108 236 128 192 108 b 0 179 54 108 0 128 "},"O":{"ha":838,"x_min":0,"x_max":0,"o":"m 400 108 b 0 465 179 108 0 268 b 400 822 0 663 179 822 b 799 465 619 822 799 663 b 400 108 799 268 619 108 m 400 751 b 260 465 322 751 260 624 b 400 178 260 306 322 178 b 539 465 476 178 539 306 b 400 751 539 624 476 751 "},"P":{"ha":642,"x_min":0,"x_max":0,"o":"m 0 190 b 42 397 0 267 42 303 l 42 532 b 0 740 42 626 0 663 b 144 822 0 800 56 822 l 401 822 b 635 607 529 822 635 725 b 401 392 635 489 529 392 l 246 392 b 289 190 249 301 289 265 b 144 108 289 129 233 108 b 0 190 56 108 0 129 m 246 499 b 318 465 246 468 281 454 b 429 607 383 485 429 543 b 318 749 429 674 385 729 b 246 715 281 760 246 746 "},"Q":{"ha":835,"x_min":0,"x_max":0,"o":"m 218 147 b 0 465 89 206 0 326 b 400 822 0 663 179 822 b 799 465 619 822 799 663 b 400 108 799 268 619 108 b 314 117 369 108 342 111 b 664 69 389 78 479 25 b 590 -157 769 94 797 -157 b 168 57 371 -157 286 118 b 142 126 118 32 93 101 b 218 147 169 142 194 147 m 400 751 b 260 465 322 751 260 624 b 400 178 260 306 322 178 b 539 465 476 178 539 306 b 400 751 539 624 476 751 "},"R":{"ha":719,"x_min":0,"x_max":0,"o":"m 0 190 b 42 397 0 267 42 303 l 42 532 b 0 739 42 626 0 663 b 144 822 0 800 56 822 l 414 822 b 638 632 529 822 638 738 b 540 478 638 569 597 513 b 642 350 600 454 642 413 b 685 190 642 276 685 250 b 540 108 685 129 629 108 b 396 190 451 108 396 129 b 438 350 396 250 438 276 b 311 443 438 399 365 443 l 246 443 l 246 397 b 289 190 246 303 289 267 b 144 108 289 129 233 108 b 0 190 56 108 0 129 m 415 632 b 276 753 415 694 350 753 l 246 753 l 246 513 l 276 513 b 415 632 350 513 415 569 "},"S":{"ha":669,"x_min":0,"x_max":0,"o":"m 47 489 b 333 822 -85 624 76 828 b 561 771 479 818 490 781 b 556 563 678 756 643 560 b 306 751 454 564 444 749 b 265 707 282 753 267 738 b 560 465 258 590 457 551 b 586 442 569 457 579 450 b 300 108 718 306 558 101 b 72 158 156 111 143 147 b 78 368 -39 175 -8 369 b 328 178 181 365 189 181 b 369 222 351 178 367 192 b 74 464 375 339 178 379 "},"T":{"ha":633,"x_min":0,"x_max":0,"o":"m 63 608 b 175 832 -36 608 -32 875 b 329 822 194 828 257 822 l 497 822 b 650 832 568 822 631 828 b 763 608 857 875 861 608 b 532 751 671 608 610 751 l 514 751 b 515 733 514 746 515 740 l 515 397 b 557 190 515 303 557 267 b 413 108 557 129 501 108 b 268 190 324 108 268 129 b 311 397 268 267 311 303 l 311 733 b 313 751 311 740 311 746 l 294 751 b 63 608 215 751 154 608 "},"U":{"ha":814,"x_min":0,"x_max":0,"o":"m 42 532 b 0 739 42 626 0 663 b 144 822 0 800 56 822 b 289 739 233 822 289 800 b 246 532 289 663 246 626 l 246 392 b 389 178 246 267 304 178 b 531 392 472 178 531 264 l 531 532 b 489 739 531 626 489 663 b 633 822 489 800 544 822 b 778 739 721 822 778 800 b 735 532 778 663 735 626 l 735 397 b 778 196 735 301 778 264 b 633 108 778 128 725 108 b 533 179 564 108 540 133 b 346 108 493 133 432 108 b 42 390 156 108 42 199 "},"V":{"ha":665,"x_min":0,"x_max":0,"o":"m 138 532 b 6 740 107 629 36 663 b 147 822 -19 800 47 822 b 318 740 249 822 294 800 b 339 606 338 692 321 663 l 408 397 b 508 372 446 293 486 325 l 567 511 b 525 760 614 619 501 682 b 678 822 538 800 579 822 b 813 721 783 822 835 782 b 654 529 789 658 686 607 l 550 285 b 383 108 499 165 469 108 b 221 281 292 108 264 157 l 138 532 "},"W":{"ha":1024,"x_min":0,"x_max":0,"o":"m 132 532 b 4 740 103 629 35 663 b 142 822 -18 800 44 822 b 304 740 238 822 281 800 b 325 606 324 692 307 663 l 392 397 b 486 372 426 293 465 325 l 525 468 l 504 532 b 378 740 475 629 408 663 b 514 822 354 800 418 822 b 678 740 611 822 654 800 b 697 606 696 692 679 663 l 764 397 b 858 372 800 293 839 325 l 915 511 b 875 760 961 619 853 682 b 1022 822 888 800 928 822 b 1150 721 1122 822 1172 782 b 999 529 1128 658 1029 607 l 900 285 b 740 108 850 165 822 108 b 585 281 651 108 625 157 l 558 363 l 528 285 b 367 108 478 165 450 108 b 211 281 279 108 253 157 l 132 532 "},"X":{"ha":733,"x_min":0,"x_max":0,"o":"m 229 476 l 194 532 b 14 740 138 629 67 663 b 156 822 -28 800 49 822 b 315 756 228 822 289 801 b 386 606 344 706 350 663 l 438 522 l 446 538 b 394 740 504 647 379 686 b 569 822 407 782 465 822 b 703 721 681 822 732 782 b 521 529 674 658 561 607 l 489 465 l 488 465 l 482 453 l 517 397 b 696 190 574 301 643 267 b 568 108 738 129 674 108 b 360 201 461 108 401 142 b 311 344 326 249 343 297 l 272 407 l 265 392 b 317 189 207 283 332 243 b 142 108 304 147 246 108 b 8 210 31 108 -21 149 b 190 401 38 272 150 322 l 222 465 "},"Y":{"ha":589,"x_min":0,"x_max":0,"o":"m 189 514 b 11 722 136 611 61 644 b 128 822 -26 782 32 822 b 322 740 224 822 285 800 b 372 606 353 692 340 663 l 449 469 b 489 539 469 504 489 539 b 476 751 540 628 457 697 b 638 822 492 793 544 822 b 747 721 738 822 779 782 b 564 529 714 658 608 607 l 475 374 b 517 190 482 296 517 261 b 372 108 517 129 461 108 b 228 190 283 108 228 129 b 269 374 228 260 263 296 l 189 514 "},"Z":{"ha":682,"x_min":0,"x_max":0,"o":"m 58 629 b 181 832 -40 629 -24 875 b 288 822 201 828 260 822 l 518 822 b 594 683 624 822 636 756 l 286 178 l 368 178 b 593 300 460 178 501 300 b 472 97 692 300 676 54 b 365 108 450 101 392 108 l 135 108 b 58 246 28 108 17 175 l 367 751 l 283 751 b 58 629 192 751 151 629 "},"d":{"ha":689,"x_min":0,"x_max":0,"o":"m 258 108 b 0 340 115 108 0 211 b 258 572 0 468 115 572 b 424 519 321 572 379 553 l 424 532 b 381 739 424 626 381 663 b 517 822 381 800 428 822 b 653 739 606 822 653 800 b 610 532 653 663 610 626 l 610 397 b 653 190 610 303 653 267 b 517 108 653 129 606 108 b 396 143 457 108 415 118 b 258 108 356 121 308 108 m 325 492 b 228 340 272 492 228 424 b 325 189 228 257 272 189 b 424 340 379 189 424 257 b 325 492 424 424 379 492 "},"":{"ha":1036,"x_min":0,"x_max":0,"o":"m 882 374 b 953 283 904 347 926 319 b 863 108 1051 146 950 108 b 638 229 774 108 697 128 b 521 457 594 300 622 300 b 483 511 508 476 496 494 l 439 383 b 451 179 407 290 475 249 b 308 108 433 128 382 108 b 208 179 244 108 190 128 b 363 383 233 249 331 290 l 429 576 b 118 644 268 744 135 689 b 304 544 90 567 243 643 b 197 307 368 439 300 307 b 61 697 7 307 -61 543 b 671 646 182 849 490 894 b 782 497 671 646 733 561 b 829 438 799 474 814 454 l 857 503 b 825 667 915 653 900 708 b 749 918 644 567 549 892 b 947 529 951 946 1063 789 l 882 374 "},"":{"ha":668,"x_min":0,"x_max":0,"o":"m 513 696 b 618 583 607 747 706 631 b 549 510 553 547 546 529 b 631 378 600 475 631 429 b 382 189 631 285 524 207 l 381 189 b 363 186 375 188 369 186 b 244 96 256 172 208 114 b 499 186 289 74 375 186 b 536 -125 664 186 671 -42 b 419 58 425 -194 285 -26 b 457 108 442 72 501 108 b 146 -142 307 108 325 -142 b 185 201 -29 -142 -49 113 b 0 378 75 232 0 300 b 315 572 0 486 142 572 b 446 556 361 572 406 567 b 513 696 439 608 457 667 m 315 254 b 394 378 360 254 394 310 b 315 503 394 447 360 503 b 236 378 271 503 236 447 b 315 254 236 310 271 254 "},"":{"ha":960,"x_min":0,"x_max":0,"o":"m 853 572 b 921 490 907 572 939 532 b 799 308 896 433 838 403 b 700 71 799 308 718 108 b 463 -142 646 -44 582 -142 b 292 -40 386 -142 300 -114 b 453 54 283 32 364 108 b 586 25 496 28 553 -24 b 486 272 621 78 551 182 b 343 456 422 360 388 392 l 276 456 l 276 290 b 364 244 276 243 288 208 b 418 188 393 258 450 242 b 240 108 381 125 300 108 b 78 253 168 108 78 153 l 78 456 l 58 456 b 0 514 26 456 0 482 b 58 572 0 546 26 572 l 78 572 b 67 751 157 682 101 751 b 32 681 21 751 21 707 b -203 665 78 572 -169 542 b 51 822 -222 738 -143 822 b 304 572 269 822 382 703 l 453 572 b 638 490 542 572 603 543 b 718 307 672 439 679 381 l 718 308 b 746 501 756 404 717 432 b 853 572 767 551 800 572 "},"a":{"ha":624,"x_min":0,"x_max":0,"o":"m 207 108 b 1 228 124 108 19 129 b 349 383 -22 357 229 440 b 264 503 339 451 310 503 b 163 410 207 503 219 431 b 42 461 115 394 51 417 b 281 572 22 547 181 572 b 539 374 394 572 539 496 l 539 290 b 590 197 539 243 590 240 b 467 108 590 146 521 108 b 369 158 426 108 390 126 b 207 108 333 131 282 108 m 353 307 b 225 254 260 349 218 299 b 353 256 238 190 303 211 l 353 307 "},"b":{"ha":682,"x_min":0,"x_max":0,"o":"m 0 190 b 42 397 0 267 42 303 l 42 532 b 0 739 42 626 0 663 b 136 822 0 800 47 822 b 271 739 224 822 271 800 b 229 532 271 663 229 626 l 229 519 b 394 572 274 553 331 572 b 653 340 536 572 653 468 b 394 108 653 211 536 108 b 257 143 343 108 296 121 b 136 108 236 118 196 108 b 0 190 47 108 0 129 m 326 492 b 229 340 272 492 229 424 b 326 189 229 257 272 189 b 424 340 381 189 424 257 b 326 492 424 424 381 492 "},"c":{"ha":563,"x_min":0,"x_max":0,"o":"m 276 108 b 0 340 124 108 0 211 b 276 572 0 468 124 572 b 535 422 394 572 501 513 b 319 376 575 318 328 274 b 276 503 314 449 303 503 b 229 408 251 503 229 461 b 454 268 229 254 414 196 b 524 236 472 299 551 285 b 276 108 479 160 385 108 "}}}
